<?xml version="1.0" encoding="utf-8"?>
<!-- Generator: Adobe Illustrator 21.1.0, SVG Export Plug-In . SVG Version: 6.00 Build 0)  -->
<svg version="1.1" id="Layer_1" xmlns="http://www.w3.org/2000/svg" xmlns:xlink="http://www.w3.org/1999/xlink" x="0px" y="0px"
	 viewBox="0 0 1080 1080" style="enable-background:new 0 0 1080 1080;" xml:space="preserve">
<style type="text/css">
	.st0{opacity:0.4;}
	.st1{fill:#19773F;}
</style>
<g class="st0">
	<g>
		<g>
			<path class="st1" d="M423.3,476.5c-22.4,0-46.6-2-71.7-6.3c-102-17.2-171.1-102.7-174-106.3l-6.5-8.2l8.8-5.6
				c3.9-2.5,97.2-60.6,199.2-43.4l0,0c106.4,17.9,183.6,67.9,175.9,113.7C549.1,455.5,495.6,476.5,423.3,476.5z M199.5,360.6
				c19.8,21.5,78.4,78.2,155.2,91.2c100.9,17,176.8-4.5,181.9-34.4c5-29.9-59.6-75.1-160.5-92.1C299,312.3,225.2,346.7,199.5,360.6z
				"/>
		</g>
	</g>
	<g>
		<g>
			<path class="st1" d="M220.1,355.5c22.9,2.8,45.6,6.7,68.1,10.7c11.3,1.9,22.5,4.3,33.8,6.2l33.7,6.5l67.2,13
				c11.2,1.9,22.4,4.1,33.7,5.6c11.3,1.8,22.5,2.9,34.1,3.4c-11.3,2.6-23,3.4-34.6,3.5c-5.8-0.1-11.6-0.1-17.4-0.4
				c-5.8-0.3-11.5-0.8-17.3-1.2c-11.5-1.1-23-2.6-34.4-4.2c-11.4-1.7-22.7-3.9-34.1-5.9c-11.3-2.4-22.6-4.7-33.7-7.3
				c-11.2-2.7-22.4-5.4-33.4-8.6C263.7,370.8,241.7,364,220.1,355.5z"/>
		</g>
		<g>
			<path class="st1" d="M456.2,405.7c-1.9,0-3.7-0.1-5.6-0.1c-3.9,0-7.9-0.1-11.9-0.3c-3.9-0.2-7.7-0.5-11.6-0.8
				c-1.9-0.1-3.8-0.3-5.7-0.4c-10-0.9-21-2.3-34.5-4.3c-8.3-1.2-16.7-2.7-24.7-4.2c-3.1-0.6-6.2-1.1-9.4-1.7
				c-3.3-0.7-6.6-1.4-9.9-2.1c-7.9-1.7-16-3.4-23.9-5.3l-3.4-0.8c-9.9-2.4-20.1-4.9-30.1-7.7c-25.6-7-46.5-13.9-65.8-21.4l-8.6-3.4
				l9.2,1.1c23.5,2.9,46.7,6.9,68.2,10.7c6.3,1,12.7,2.3,18.8,3.4c5,1,10,1.9,15,2.8l100.9,19.6c3.7,0.6,7.5,1.3,11.3,2
				c7.3,1.3,14.9,2.6,22.3,3.7c10.8,1.8,21.9,2.9,34,3.4l8.6,0.4l-8.4,1.9C481.1,404.6,470,405.7,456.2,405.7z M229.8,357.9
				c16.7,6.2,34.9,11.9,56.4,17.8c9.9,2.8,20.1,5.3,30,7.7l3.4,0.8c7.9,1.9,16,3.6,23.9,5.2c3.3,0.7,6.6,1.4,9.8,2.1
				c3.1,0.5,6.2,1.1,9.3,1.7c8.1,1.5,16.4,3,24.7,4.2c13.5,2,24.4,3.3,34.3,4.2c1.9,0.1,3.8,0.3,5.7,0.4c3.9,0.3,7.7,0.6,11.6,0.8
				c3.9,0.2,7.9,0.3,11.8,0.3c1.9,0,3.7,0,5.6,0.1c9.4,0,17.6-0.6,25-1.7c-8.6-0.6-16.7-1.6-24.7-2.9c-7.5-1.1-15.1-2.4-22.4-3.7
				c-3.8-0.7-7.5-1.3-11.3-2l-100.9-19.6c-5-0.9-10-1.8-15-2.8c-6.1-1.2-12.5-2.4-18.8-3.4C269.6,364.1,249.8,360.7,229.8,357.9z"/>
		</g>
	</g>
	<g>
		<g>
			<path class="st1" d="M540.5,379.2c-43.3,0-92.9-70.8-116.3-168.9c-24-100.6,27.7-197.6,29.9-201.7l5-9.2l8.6,6
				c3.8,2.6,93.7,65.8,117.7,166.5c25,104.9,9.2,195.6-36,206.4C546.5,378.9,543.5,379.2,540.5,379.2z M465.8,27.4
				c-12.1,26.6-41.5,102.7-23.4,178.5c23.7,99.5,73.1,161,102.6,154c29.5-7,45.8-84.2,22.1-183.7l0,0
				C549.1,100.2,488.6,45.7,465.8,27.4z"/>
		</g>
	</g>
	<g>
		<g>
			<path class="st1" d="M473.1,57.9c6.4,22.2,11.6,44.6,16.7,66.9c2.7,11.1,4.9,22.4,7.5,33.5l7.1,33.6l14.2,67
				c2.7,11.1,5,22.2,8,33.2c2.7,11.1,6.1,21.9,10.2,32.8c-6.8-9.4-12.1-19.9-16.7-30.5c-2.1-5.4-4.5-10.7-6.4-16.2
				c-2-5.4-3.7-10.9-5.6-16.4c-3.5-11-6.6-22.2-9.5-33.3c-2.9-11.2-5.3-22.4-7.9-33.7c-2.2-11.3-4.5-22.6-6.4-33.9
				c-1.9-11.4-3.8-22.7-5.2-34.1C475.9,104,473.7,81,473.1,57.9z"/>
		</g>
		<g>
			<path class="st1" d="M540.8,332.5l-5-6.9c-6-8.3-11.4-18.1-16.8-30.7c-0.7-1.7-1.4-3.5-2.1-5.2c-1.5-3.6-3-7.3-4.3-11.1
				c-1.3-3.6-2.5-7.3-3.8-10.9c-0.6-1.8-1.2-3.7-1.9-5.5c-3.1-9.6-6.1-20.2-9.5-33.4c-2.1-8.1-4-16.3-5.8-24.3
				c-0.7-3.1-1.4-6.3-2.1-9.4c-0.7-3.4-1.3-6.7-2-10.1c-1.5-7.8-3.1-15.9-4.5-23.9l-0.5-3.3c-1.6-10.1-3.3-20.5-4.6-30.8
				c-3.5-26.3-5.4-48.2-5.9-69l-0.2-9.2l2.5,8.9c6.5,22.7,11.9,45.6,16.7,67c1.5,6.2,2.9,12.6,4.2,18.7c1.1,4.9,2.1,9.9,3.3,14.8
				l21.4,100.6c0.9,3.7,1.7,7.4,2.6,11.2c1.7,7.2,3.4,14.7,5.3,22c2.6,10.6,5.9,21.3,10.1,32.7L540.8,332.5z M474.6,67.7
				c0.8,17.8,2.6,36.8,5.6,58.9c1.3,10.3,3,20.7,4.6,30.8l0.5,3.3c1.3,8,2.9,16,4.5,23.8c0.7,3.4,1.3,6.7,2,10.1
				c0.7,3.1,1.4,6.2,2.1,9.4c1.8,8,3.6,16.2,5.8,24.2c3.4,13.1,6.5,23.7,9.5,33.2c0.6,1.8,1.2,3.7,1.9,5.5c1.2,3.6,2.4,7.3,3.7,10.9
				c1.3,3.7,2.8,7.4,4.3,11c0.7,1.7,1.4,3.4,2.1,5.2c3.7,8.7,7.4,16,11.3,22.3c-2.8-8.2-5.1-16-7-23.9c-2-7.3-3.7-14.8-5.4-22.1
				c-0.9-3.7-1.7-7.5-2.6-11.2l-21.4-100.6c-1.1-4.9-2.2-9.9-3.3-14.8c-1.3-6.1-2.7-12.5-4.2-18.7
				C484.5,106.7,479.9,87.3,474.6,67.7z"/>
		</g>
	</g>
	<g>
		<g>
			<path class="st1" d="M604.9,430.2c-12.9,0-23.8-3.6-31.9-11c-34.6-31-5.4-118.3,66.6-198.6c69-77.1,178.2-89.8,182.8-90.3
				l10.4-1.1l0,10.5c0,4.6-0.7,114.6-69.7,191.6l0,0c-33.4,37.3-70.8,67.2-105.2,84.2C637.9,425.3,620,430.2,604.9,430.2z
				 M813.6,150.7c-28.8,5.3-108,24.4-160,82.5c-68.3,76.2-90.7,151.9-68.1,172.1c11.4,10.2,34.8,7.8,64.1-6.7
				c32.4-16,67.7-44.3,99.5-79.9l7,6.3l-7-6.3C801.2,260.6,811.5,179.9,813.6,150.7z"/>
		</g>
	</g>
	<g>
		<g>
			<path class="st1" d="M792.7,174c-14.7,17.9-30,35-45.5,51.9c-7.6,8.6-15.6,16.8-23.3,25.2l-23.5,25L653.4,326
				c-7.6,8.5-15.4,16.8-22.8,25.5c-7.6,8.6-14.5,17.5-21.1,27c3.8-10.9,9.4-21.3,15.6-31.1c3.2-4.8,6.3-9.8,9.7-14.5
				c3.4-4.7,6.9-9.3,10.3-14c7.1-9.1,14.5-18,21.9-26.8c7.5-8.8,15.4-17.1,23.2-25.7c8.1-8.2,16-16.6,24.2-24.6
				c8.3-8,16.5-16,25.1-23.7C756.5,202.6,774,187.7,792.7,174z"/>
		</g>
		<g>
			<path class="st1" d="M605.6,386.2l2.8-8.1c3.4-9.7,8.4-19.7,15.7-31.3c1-1.6,2-3.1,3-4.6c2.1-3.3,4.3-6.7,6.7-9.9
				c2.2-3.2,4.6-6.3,6.9-9.4c1.1-1.5,2.3-3.1,3.4-4.6c6.1-8,13.1-16.5,22-26.9c5.5-6.4,11.2-12.6,16.8-18.7c2.1-2.3,4.3-4.6,6.4-7
				c2.4-2.4,4.7-4.8,7.1-7.3c5.6-5.8,11.4-11.7,17.2-17.4l2.5-2.5c7.3-7.1,14.9-14.4,22.6-21.3c19.6-17.9,36.6-31.9,53.3-44.2
				l7.5-5.5l-5.9,7.1c-15,18.3-30.7,35.8-45.5,51.9c-4.2,4.8-8.7,9.5-13,14.1c-3.5,3.7-6.9,7.4-10.3,11.2l-70.5,74.9
				c-2.5,2.8-5.1,5.7-7.7,8.5c-5,5.5-10.2,11.2-15.1,17c-7.3,8.2-14.1,17-21.1,26.9L605.6,386.2z M785.4,180.9
				c-14.1,10.8-28.7,23.1-45.2,38.1c-7.7,6.9-15.2,14.2-22.5,21.2l-2.5,2.5c-5.8,5.7-11.6,11.6-17.2,17.4c-2.3,2.4-4.7,4.8-7,7.2
				c-2.1,2.3-4.2,4.6-6.4,7c-5.6,6.1-11.3,12.3-16.7,18.7c-8.9,10.3-15.8,18.8-21.9,26.7c-1.1,1.5-2.3,3.1-3.4,4.6
				c-2.3,3.1-4.6,6.2-6.9,9.4c-2.3,3.2-4.5,6.6-6.6,9.8c-1,1.6-2,3.1-3,4.6c-5,8-8.9,15.2-11.9,22c5.1-6.9,10.3-13.3,15.6-19.3
				c4.9-5.8,10.1-11.5,15.1-17c2.6-2.8,5.1-5.6,7.7-8.5l70.5-74.9c3.4-3.7,6.9-7.5,10.3-11.2c4.3-4.6,8.7-9.3,12.9-14
				C759,211.2,772.4,196.4,785.4,180.9z"/>
		</g>
	</g>
	<g>
		<g>
			<path class="st1" d="M619.6,687c-0.1-1.9-12.3-195.4-84.9-310.9l19.9-12.5c75.9,120.6,88,313.8,88.5,322L619.6,687z"/>
		</g>
	</g>
	<g>
		<g>
			<path class="st1" d="M865.6,781.7H397c-7.8,0-14.9-4.9-17.6-12.3l-24.6-67.3c-2.1-5.8-1.3-12.2,2.2-17.2c3.5-5,9.3-8,15.4-8
				h517.9c6.1,0,11.9,3,15.4,8c3.5,5,4.3,11.5,2.2,17.2l-24.6,67.3C880.5,776.7,873.4,781.7,865.6,781.7z M372.4,695.7l24.6,67.3
				h468.6l24.6-67.3L372.4,695.7z"/>
		</g>
	</g>
	<g>
		<g>
			<path class="st1" d="M799.5,1035.8H463.1c-9.1,0-16.9-6.5-18.5-15.5l-41.4-235.4c-1-5.5,0.5-11.1,4.1-15.3
				c3.6-4.3,8.8-6.7,14.4-6.7h419.3c5.6,0,10.8,2.4,14.4,6.7c3.6,4.3,5.1,9.8,4.1,15.3L818,1020.3
				C816.4,1029.3,808.6,1035.8,799.5,1035.8z M840.9,781.7H421.7l41.4,235.4h336.4L840.9,781.7z"/>
		</g>
	</g>
	<g>
		<g>
			<path class="st1" d="M792.3,1080.6H470.3c-7.2,0-13.8-4.2-16.9-10.7l-12.5-26c-2.8-5.8-2.4-12.6,1-18.1c3.5-5.5,9.4-8.8,15.9-8.8
				h346.9c6.5,0,12.4,3.3,15.9,8.8c3.5,5.5,3.8,12.3,1,18.1l-12.5,26C806.1,1076.5,799.4,1080.6,792.3,1080.6z M457.8,1035.8
				l12.5,26h321.9l12.5-26H457.8z"/>
		</g>
	</g>
</g>
</svg>
