<?xml version="1.0" encoding="utf-8"?>
<!-- Generator: Adobe Illustrator 21.1.0, SVG Export Plug-In . SVG Version: 6.00 Build 0)  -->
<svg version="1.1" id="Layer_1" xmlns="http://www.w3.org/2000/svg" xmlns:xlink="http://www.w3.org/1999/xlink" x="0px" y="0px"
	 viewBox="0 0 1080 1080" style="enable-background:new 0 0 1080 1080;" xml:space="preserve">
<style type="text/css">
	.st0{opacity:0.4;}
	.st1{fill:#19773F;}
</style>
<g class="st0">
	<g>
		<path class="st1" d="M764.1,1080H316.3c-58.2,0-105.5-47.4-105.5-105.5c0-2,0.1-3.9,0.3-5.9v-0.4c-3-30,19.8-63.9,20.8-65.3
			l0.7-0.9l168.5-188V448.9h-4.4c-42.1,0-76.3-34.2-76.3-76.3v-36c0-42.1,34.2-76.3,76.3-76.3h286.9c42.1,0,76.3,34.2,76.3,76.3v36
			c0,42.1-34.2,76.3-76.3,76.3h-4.4v265l169.3,189c1,1.4,23.8,35.3,20.8,65.3v0.4c0.1,2,0.3,3.8,0.3,5.8
			C869.6,1032.6,822.2,1080,764.1,1080z M246.9,913.9c-2.6,3.9-19.9,31.4-17.3,53l0.1,0.8l-0.1,2.1c-0.1,1.5-0.2,3-0.2,4.5
			c0,47.9,39,86.9,86.9,86.9h447.8c47.9,0,86.9-39,86.9-86.9c0-1.5-0.1-3-0.2-4.5l-0.1-2.2l0.1-0.8c2.3-19.1-11.4-44.3-17.3-53
			L660.6,721.1V430.4h23c31.8,0,57.7-25.9,57.7-57.7v-36c0-31.8-25.9-57.7-57.7-57.7H396.7c-31.8,0-57.7,25.9-57.7,57.7v36
			c0,31.8,25.9,57.7,57.7,57.7h23v290.8L246.9,913.9z"/>
	</g>
	<g>
		<path class="st1" d="M764.1,1080H316.3c-58.2,0-105.5-47.4-105.5-105.5c0-2,0.1-3.9,0.3-5.9v-0.4c-3-30,19.8-63.9,20.8-65.3
			l0.7-0.9l91.2-101.7l2.3-0.8c38.2-13.6,75-20.4,109.2-20.4c86.1,0,168.6-20.8,238.6-60.3l6.5-3.7l168.2,187.8
			c1,1.4,23.8,35.3,20.8,65.3v0.4c0.1,2,0.3,3.8,0.3,5.8C869.6,1032.6,822.2,1080,764.1,1080z M246.9,913.9
			c-2.6,3.9-19.9,31.4-17.3,53l0.1,0.8l-0.1,2.1c-0.1,1.5-0.2,3-0.2,4.5c0,47.9,39,86.9,86.9,86.9h447.8c47.9,0,86.9-39,86.9-86.9
			c0-1.5-0.1-3-0.2-4.5l-0.1-2.2l0.1-0.8c2.3-19.1-11.4-44.3-17.3-53L676.4,738.7c-71.4,38.6-154.6,59-241.2,59
			c-31.4,0-65.3,6.3-100.7,18.5L246.9,913.9z"/>
	</g>
	<g>
		<path class="st1" d="M441.8,209c-25.5,0-46.2-20.8-46.2-46.2s20.8-46.2,46.2-46.2c25.4,0,46.2,20.8,46.2,46.2S467.4,209,441.8,209
			z M441.8,135c-15.2,0-27.7,12.5-27.7,27.7c0,15.2,12.5,27.7,27.7,27.7c15.2,0,27.7-12.5,27.7-27.7
			C469.5,147.5,457.1,135,441.8,135z"/>
	</g>
	<g>
		<path class="st1" d="M660.5,244.5c-19.6,0-35.4-15.9-35.4-35.4s15.9-35.4,35.4-35.4s35.4,15.9,35.4,35.4
			C695.9,228.5,680.1,244.5,660.5,244.5z M660.5,192.2c-9.3,0-16.9,7.5-16.9,16.9c0,9.3,7.5,16.9,16.9,16.9
			c9.4,0,16.9-7.5,16.9-16.9C677.4,199.7,669.8,192.2,660.5,192.2z"/>
	</g>
	<g>
		<path class="st1" d="M579.2,147.4c-40.4,0-73.3-32.9-73.3-73.3s32.9-73.3,73.3-73.3c40.4,0,73.3,32.9,73.3,73.3
			S619.7,147.4,579.2,147.4z M579.2,19.3c-30.2,0-54.7,24.5-54.7,54.7s24.5,54.7,54.7,54.7c30.2,0,54.7-24.5,54.7-54.7
			S609.4,19.3,579.2,19.3z"/>
	</g>
	<g>
		<rect x="553.3" y="508.9" class="st1" width="82.5" height="18.6"/>
	</g>
	<g>
		<rect x="522.8" y="439.3" class="st1" width="112.9" height="18.6"/>
	</g>
	<g>
		<rect x="522.8" y="578.6" class="st1" width="112.9" height="18.6"/>
	</g>
	<g>
		<rect x="553.3" y="648.2" class="st1" width="82.5" height="18.6"/>
	</g>
</g>
</svg>
