<?xml version="1.0" encoding="utf-8"?>
<!-- Generator: Adobe Illustrator 22.0.1, SVG Export Plug-In . SVG Version: 6.00 Build 0)  -->
<svg version="1.1" id="Layer_1" xmlns="http://www.w3.org/2000/svg" xmlns:xlink="http://www.w3.org/1999/xlink" x="0px" y="0px"
	 viewBox="0 0 1080 1080" style="enable-background:new 0 0 1080 1080;" xml:space="preserve">
<style type="text/css">
	.st0{opacity:0.4;}
	.st1{fill:#19773F;}
</style>
<g class="st0">
	<g>
		<path class="st1" d="M757.6,1064.3H322.8c-56.5,0-102.4-46-102.4-102.4c0-1.9,0.1-3.8,0.3-5.7l0-0.4c-2.9-29.1,19.2-62,20.2-63.4
			l0.7-0.9l163.6-182.5V451.6h-4.3c-40.9,0-74.1-33.2-74.1-74.1v-35c0-40.9,33.2-74.1,74.1-74.1h278.6c40.9,0,74.1,33.2,74.1,74.1
			v35c0,40.9-33.2,74.1-74.1,74.1h-4.3v257.3l164.4,183.5c1,1.4,23.1,34.3,20.2,63.4l0,0.4c0.1,1.9,0.3,3.7,0.3,5.6
			C860,1018.3,814,1064.3,757.6,1064.3z M255.4,903c-2.5,3.8-19.3,30.5-16.8,51.5l0.1,0.8l-0.1,2c-0.1,1.5-0.2,2.9-0.2,4.4
			c0,46.5,37.9,84.4,84.4,84.4h434.8c46.5,0,84.4-37.9,84.4-84.4c0-1.5-0.1-2.9-0.2-4.4l-0.1-2.1l0.1-0.8
			c2.2-18.5-11.1-43-16.8-51.5L657.1,715.8V433.6h22.3c30.9,0,56-25.1,56-56v-35c0-30.9-25.1-56-56-56H400.9c-30.9,0-56,25.1-56,56
			v35c0,30.9,25.1,56,56,56h22.3v282.3L255.4,903z"/>
	</g>
	<g>
		<path class="st1" d="M757.6,1064.3H322.8c-56.5,0-102.4-46-102.4-102.4c0-1.9,0.1-3.8,0.3-5.7l0-0.4c-2.9-29.1,19.2-62,20.2-63.4
			l0.7-0.9l88.5-98.7l2.2-0.8c37.1-13.2,72.8-19.8,106-19.8c83.6,0,163.7-20.2,231.7-58.5l6.3-3.6l163.3,182.3
			c1,1.4,23.1,34.3,20.2,63.4l0,0.4c0.1,1.9,0.3,3.7,0.3,5.6C860,1018.3,814,1064.3,757.6,1064.3z M255.4,903
			c-2.5,3.8-19.3,30.5-16.8,51.5l0.1,0.8l-0.1,2c-0.1,1.5-0.2,2.9-0.2,4.4c0,46.5,37.9,84.4,84.4,84.4h434.8
			c46.5,0,84.4-37.9,84.4-84.4c0-1.5-0.1-2.9-0.2-4.4l-0.1-2.1l0.1-0.8c2.2-18.5-11.1-43-16.8-51.5L672.4,732.9
			c-69.3,37.5-150.1,57.3-234.2,57.3c-30.5,0-63.4,6.1-97.8,18L255.4,903z"/>
	</g>
	<g>
		<path class="st1" d="M444.7,218.6c-24.8,0-44.9-20.2-44.9-44.9s20.2-44.9,44.9-44.9s44.9,20.2,44.9,44.9S469.5,218.6,444.7,218.6z
			 M444.7,146.8c-14.8,0-26.9,12.1-26.9,26.9s12.1,26.9,26.9,26.9s26.9-12.1,26.9-26.9S459.5,146.8,444.7,146.8z"/>
	</g>
	<g>
		<path class="st1" d="M657,253.1c-19,0-34.4-15.4-34.4-34.4c0-19,15.4-34.4,34.4-34.4c19,0,34.4,15.4,34.4,34.4
			C691.4,237.6,676,253.1,657,253.1z M657,202.3c-9,0-16.4,7.3-16.4,16.4c0,9,7.3,16.4,16.4,16.4s16.4-7.3,16.4-16.4
			C673.4,209.6,666,202.3,657,202.3z"/>
	</g>
	<g>
		<path class="st1" d="M578.1,158.8c-39.2,0-71.2-31.9-71.2-71.2s31.9-71.2,71.2-71.2c39.2,0,71.2,31.9,71.2,71.2
			S617.4,158.8,578.1,158.8z M578.1,34.5c-29.3,0-53.1,23.8-53.1,53.1s23.8,53.1,53.1,53.1c29.3,0,53.1-23.8,53.1-53.1
			S607.4,34.5,578.1,34.5z"/>
	</g>
	<g>
		<rect x="552.9" y="509.8" class="st1" width="80.1" height="18.1"/>
	</g>
	<g>
		<rect x="523.3" y="442.2" class="st1" width="109.6" height="18.1"/>
	</g>
	<g>
		<rect x="523.3" y="577.5" class="st1" width="109.6" height="18.1"/>
	</g>
	<g>
		<rect x="552.9" y="645.1" class="st1" width="80.1" height="18.1"/>
	</g>
</g>
</svg>
