<?xml version="1.0" encoding="utf-8"?>
<!-- Generator: Adobe Illustrator 21.1.0, SVG Export Plug-In . SVG Version: 6.00 Build 0)  -->
<svg version="1.1" id="Layer_1" xmlns="http://www.w3.org/2000/svg" xmlns:xlink="http://www.w3.org/1999/xlink" x="0px" y="0px"
	 viewBox="0 0 1080 1080" style="enable-background:new 0 0 1080 1080;" xml:space="preserve">
<style type="text/css">
	.st0{opacity:0.4;}
	.st1{fill:#19773F;}
</style>
<g class="st0">
	<g>
		<g>
			<path class="st1" d="M797,763.5c-120,0-218.1-95.6-222.1-214.6h-67.7C503.1,667.9,405,763.5,285,763.5
				c-122.6,0-222.3-99.7-222.3-222.3S162.5,319,285,319h512c122.6,0,222.3,99.7,222.3,222.3S919.5,763.5,797,763.5z M492,533.6h98
				v7.7c0,114.1,92.8,207,207,207s207-92.8,207-207s-92.8-207-207-207H285c-114.1,0-207,92.8-207,207s92.8,207,207,207
				s207-92.8,207-207V533.6z"/>
		</g>
	</g>
	<g>
		<g>
			<path class="st1" d="M797,720.9c-99,0-179.6-80.6-179.6-179.6c0-12,1.2-24.1,3.7-36H461c2.4,11.9,3.7,24,3.7,36
				c0,99-80.6,179.6-179.6,179.6s-179.6-80.6-179.6-179.6s80.6-179.6,179.6-179.6H797c99,0,179.6,80.6,179.6,179.6
				S896,720.9,797,720.9z M451.4,497.6h179.2l-1.1,4.7c-3,12.8-4.5,26-4.5,39c0,94.8,77.1,172,172,172s171.9-77.1,171.9-172
				s-77.1-172-171.9-172H285c-94.8,0-172,77.1-172,172s77.1,172,172,172s172-77.2,172-172c0-13-1.5-26.1-4.5-39L451.4,497.6z"/>
		</g>
	</g>
	<g>
		<g>
			<path class="st1" d="M1081,604.5h-77.1V466.6h77.1V604.5z M1019.2,589.2h46.4V482h-46.4L1019.2,589.2L1019.2,589.2z"/>
		</g>
	</g>
	<g>
		<g>
			<path class="st1" d="M78.1,604.5H1V466.6h77.1V604.5z M16.3,589.2h46.4V482H16.3V589.2z"/>
		</g>
	</g>
</g>
</svg>
