<?xml version="1.0" encoding="utf-8"?>
<!-- Generator: Adobe Illustrator 21.1.0, SVG Export Plug-In . SVG Version: 6.00 Build 0)  -->
<svg version="1.1" id="Layer_1" xmlns="http://www.w3.org/2000/svg" xmlns:xlink="http://www.w3.org/1999/xlink" x="0px" y="0px"
	 viewBox="0 0 1080 362" style="enable-background:new 0 0 1080 362;" xml:space="preserve">
<style type="text/css">
	.st0{opacity:0.1;}
	.st1{fill:#2C3E50;}
</style>
<g class="st0">
	<g>
		<g>
			<path class="st1" d="M535.1,341.6c-12.3,0-24.3-1-35.7-2.9c-33.3-5.6-68.2-17.6-106.7-36.7c-56.8-28.2-104.4-69.8-137.7-120.2
				C157.9,34.6,7.5,25.7,6,25.6l-6-0.3l0.6-12l5.9,0.3c1.6,0.1,158,9.3,258.3,161.5c32.1,48.7,78.1,88.9,133,116.1
				c37.5,18.6,71.3,30.3,103.4,35.6c32.2,5.4,68.3,2.8,107.2-7.8c23.5-6.4,46.2-14.7,67.5-24.9c57.7-27.4,105.8-68.6,139.2-119.1
				C915.5,23,1071.9,13.8,1073.5,13.7l5.9-0.3l0.6,12l-5.9,0.3c-1.5,0.1-152.1,9.2-249,156.1c-34.5,52.4-84.3,95-144,123.3
				c-22,10.4-45.3,19-69.5,25.6C584.8,337.9,559.1,341.6,535.1,341.6z"/>
		</g>
	</g>
	<g>
		<path class="st1" d="M679.9,277.8V79.1c-3.9-2-7.9-4-12-5.9v210.5c0.2-0.1,0.4-0.2,0.6-0.3C672.3,281.6,676.1,279.7,679.9,277.8z"
			/>
	</g>
	<g>
		<path class="st1" d="M955.4,75.8c-4,2.2-8,4.5-12,6.9v191.7c4,2.4,8,4.7,12,6.9V75.8z"/>
	</g>
	<g>
		<path class="st1" d="M748.7,125.9c-3.9-3.4-7.9-6.8-12-10V241c4.1-3.3,8.1-6.6,12-10.1V125.9z"/>
	</g>
	<g>
		<path class="st1" d="M886.5,231.4V125.6c-4,3.8-8,7.7-12,11.8v82.3C878.5,223.7,882.5,227.6,886.5,231.4z"/>
	</g>
	<g>
		<path class="st1" d="M542.9,41.9c-4-0.1-8-0.2-12-0.1v275.8c3.9,0,7.9-0.1,12-0.3V41.9z"/>
	</g>
	<g>
		<path class="st1" d="M130.4,82.5c-4-2.4-8-4.7-12-6.9V281c4-2.2,8-4.5,12-6.9V82.5z"/>
	</g>
	<g>
		<path class="st1" d="M337,115.7c-4.1,3.2-8.1,6.6-12,10V231c3.9,3.4,7.9,6.8,12,10V115.7z"/>
	</g>
	<g>
		<path class="st1" d="M199.3,219.6v-82.3c-4-4.1-8-8-12-11.8v105.9C191.3,227.6,195.3,223.6,199.3,219.6z"/>
	</g>
	<g>
		<path class="st1" d="M49.6,47.3v262.1c3.8-1.1,7.8-2.3,12-3.7V51C57.4,49.6,53.4,48.4,49.6,47.3z"/>
	</g>
	<g>
		<path class="st1" d="M599,49.2v259.3c1.2-0.3,2.4-0.6,3.6-0.9c2.8-0.8,5.6-1.5,8.4-2.4v-253C607,51.1,603,50.1,599,49.2z"/>
	</g>
	<g>
		<path class="st1" d="M405.9,283.7V73.2c-4.1,1.9-8,3.9-12,5.9v198.7c1.8,0.9,3.6,1.9,5.4,2.8C401.5,281.6,403.7,282.6,405.9,283.7
			z"/>
	</g>
	<g>
		<path class="st1" d="M462.8,51.7v254.5c4,1.2,8,2.4,12,3.4v-261C470.8,49.6,466.8,50.6,462.8,51.7z"/>
	</g>
	<g>
		<path class="st1" d="M1012.2,51.2v254.7c4.1,1.4,8.1,2.6,12,3.7V47.5C1020.4,48.6,1016.4,49.8,1012.2,51.2z"/>
	</g>
	<g>
		<path class="st1" d="M1074.1,331.2c-1.4-0.1-141.5-11.2-238.5-141l-7.5,9.9c100.3,134.5,243.9,143,245.4,143.1l5.9,0.3l0.6-12
			L1074.1,331.2z"/>
	</g>
	<g>
		<path class="st1" d="M1074.1,331.2c-1.4-0.1-141.5-11.2-238.5-141l-7.5,9.9c100.3,134.5,243.9,143,245.4,143.1l5.9,0.3l0.6-12
			L1074.1,331.2z"/>
	</g>
	<g>
		<path class="st1" d="M6.2,331.4c1.4-0.1,141.5-11.2,238.5-141l7.5,9.9C151.9,334.8,8.3,343.3,6.8,343.4l-5.9,0.3l-0.6-12
			L6.2,331.4z"/>
	</g>
	<g>
		<path class="st1" d="M678.8,50.8c-47.2-22-95.1-33.1-141.6-33v0c-0.1,0-0.1,0-0.2,0c-0.1,0-0.1,0-0.2,0v0
			c-46.5-0.1-94.4,10.9-141.6,33c-53.2,24.9-98.7,61-132.7,105.3l7.9,9.2c32.8-42.6,78.5-79.6,129.8-103.6
			c45.6-21.3,91.9-32,136.8-31.8c44.9-0.1,91.1,10.5,136.8,31.8c51.4,24,97.1,61,129.8,103.6l7.9-9.2
			C777.5,111.8,732.1,75.6,678.8,50.8z"/>
	</g>
</g>
</svg>
