<?xml version="1.0" encoding="utf-8"?>
<!-- Generator: Adobe Illustrator 21.1.0, SVG Export Plug-In . SVG Version: 6.00 Build 0)  -->
<svg version="1.1" id="Layer_1" xmlns="http://www.w3.org/2000/svg" xmlns:xlink="http://www.w3.org/1999/xlink" x="0px" y="0px"
	 viewBox="0 0 1080 1080" style="enable-background:new 0 0 1080 1080;" xml:space="preserve">
<style type="text/css">
	.st0{opacity:0.15;}
	.st1{fill:#2C3E50;}
</style>
<g class="st0">
	<g>
		<g>
			<path class="st1" d="M537.2,1075.7c-30,0-47.3-21-53.4-30.1c-1.9-2.8-2.1-6.4-0.5-9.4c1.6-3,4.9-4.7,8.1-4.8l45.8,0.4l45.7-0.4
				c3.3,0.1,6.5,1.8,8.1,4.8c1.6,3,1.4,6.6-0.5,9.4C584.5,1054.7,567.2,1075.7,537.2,1075.7z M500.6,1045.1c7.1,7.7,19.2,17,36.6,17
				c17.4,0,29.6-9.3,36.6-17l-36.6,0.3L500.6,1045.1z"/>
		</g>
	</g>
	<g>
		<g>
			<path class="st1" d="M650.3,884.1H430.7c-11,0-20-9-20-20v-9.4c0-11,9-20,20-20h219.6c11,0,20,9,20,20v9.4
				C670.3,875.1,661.3,884.1,650.3,884.1z M430.7,848.2c-3.6,0-6.5,2.9-6.5,6.5v9.4c0,3.6,2.9,6.5,6.5,6.5h219.6
				c3.6,0,6.5-2.9,6.5-6.5v-9.4c0-3.6-2.9-6.5-6.5-6.5H430.7z"/>
		</g>
	</g>
	<g>
		<g>
			<path class="st1" d="M649.9,949.7H430.2c-11,0-20-9-20-20v-9.4c0-11,9-20,20-20h219.6c11,0,20,9,20,20v9.4
				C669.9,940.7,660.9,949.7,649.9,949.7z M430.2,913.8c-3.6,0-6.5,2.9-6.5,6.5v9.4c0,3.6,2.9,6.5,6.5,6.5h219.6
				c3.6,0,6.5-2.9,6.5-6.5v-9.4c0-3.6-2.9-6.5-6.5-6.5H430.2z"/>
		</g>
	</g>
	<g>
		<g>
			<path class="st1" d="M650.9,1015.3H431.3c-11,0-20-9-20-20v-9.4c0-11,9-20,20-20h219.6c11,0,20,9,20,20v9.4
				C670.9,1006.3,661.9,1015.3,650.9,1015.3z M431.3,979.4c-3.6,0-6.5,2.9-6.5,6.5v9.4c0,3.6,2.9,6.5,6.5,6.5h219.6
				c3.6,0,6.5-2.9,6.5-6.5v-9.4c0-3.6-2.9-6.5-6.5-6.5H431.3z"/>
		</g>
	</g>
	<g>
		<g>
			<path class="st1" d="M632.9,819.3H440.5c-18.1,0-32.8-14.7-32.8-32.8v-34c0-57.8-20.5-113.5-57.7-157.1
				c-38.9-45.5-60.1-103.6-59.8-163.6c0.4-67.6,27.7-130.9,77-178.3c49.3-47.4,113.7-72.2,181.5-70
				c135.2,4.6,241.1,114.3,241.1,249.6c0,61.4-22.5,120.4-63.3,166.2c-39.2,44-60.8,101.4-60.8,161.8v25.3
				C665.7,804.6,651,819.3,632.9,819.3z M540,201.5c-59.8,0-116.5,22.9-160.3,65.1c-45.7,44-71.1,102.7-71.4,165.4
				c-0.3,55.6,19.4,109.5,55.5,151.7c40,46.8,62,106.7,62,168.8v34c0,8.1,6.6,14.7,14.7,14.7h192.4c8.1,0,14.7-6.6,14.7-14.7v-25.3
				c0-64.8,23.2-126.6,65.4-173.8c37.9-42.5,58.7-97.2,58.7-154.1c0-125.6-98.2-227.3-223.7-231.6
				C545.4,201.6,542.7,201.5,540,201.5z"/>
		</g>
	</g>
	<g>
		<g>
			<g>
				<path class="st1" d="M545.7,119.6c-12.4,0-22.5-10.1-22.5-22.5V26.7c0-12.4,10.1-22.5,22.5-22.5c12.4,0,22.5,10.1,22.5,22.5
					v70.4C568.2,109.5,558.1,119.6,545.7,119.6z M545.7,17.8c-4.9,0-8.9,4-8.9,8.9v70.4c0,4.9,4,8.9,8.9,8.9c4.9,0,8.9-4,8.9-8.9
					V26.7C554.6,21.8,550.6,17.8,545.7,17.8z"/>
			</g>
		</g>
		<g>
			<g>
				<path class="st1" d="M272.7,211.1c-6,0-11.6-2.3-15.9-6.6L207,154.7c-8.8-8.8-8.8-23,0-31.8c8.8-8.8,23-8.8,31.8,0l49.8,49.8
					c8.8,8.8,8.8,23,0,31.8C284.3,208.8,278.7,211.1,272.7,211.1z M222.9,129.9c-2.4,0-4.6,0.9-6.3,2.6c-3.5,3.5-3.5,9.1,0,12.6
					l49.8,49.8c3.4,3.4,9.2,3.4,12.6,0c3.5-3.5,3.5-9.1,0-12.6l-49.8-49.8C227.5,130.9,225.3,129.9,222.9,129.9z"/>
			</g>
		</g>
		<g>
			<g>
				<path class="st1" d="M807,211.1c-6,0-11.6-2.3-15.9-6.6c-8.8-8.8-8.8-23,0-31.8l49.8-49.8c8.8-8.8,23-8.8,31.8,0
					c8.8,8.8,8.8,23,0,31.8l-49.8,49.8C818.6,208.8,813,211.1,807,211.1z M856.7,129.9c-2.3,0-4.6,0.9-6.3,2.6l-49.8,49.8
					c-3.5,3.5-3.5,9.1,0,12.6c3.4,3.4,9.2,3.4,12.6,0l49.8-49.8c3.5-3.5,3.5-9.1,0-12.6C861.3,130.8,859,129.9,856.7,129.9z"/>
			</g>
		</g>
		<g>
			<g>
				<path class="st1" d="M191.9,449.7h-70.4c-12.4,0-22.5-10.1-22.5-22.5s10.1-22.5,22.5-22.5h70.4c12.4,0,22.5,10.1,22.5,22.5
					S204.3,449.7,191.9,449.7z M121.5,418.3c-4.9,0-8.9,4-8.9,8.9c0,4.9,4,8.9,8.9,8.9h70.4c4.9,0,8.9-4,8.9-8.9
					c0-4.9-4-8.9-8.9-8.9H121.5z"/>
			</g>
		</g>
		<g>
			<g>
				<path class="st1" d="M958.5,449.7h-70.4c-12.4,0-22.5-10.1-22.5-22.5s10.1-22.5,22.5-22.5h70.4c12.4,0,22.5,10.1,22.5,22.5
					S970.9,449.7,958.5,449.7z M888.1,418.3c-4.9,0-8.9,4-8.9,8.9c0,4.9,4,8.9,8.9,8.9h70.4c4.9,0,8.9-4,8.9-8.9
					c0-4.9-4-8.9-8.9-8.9H888.1z"/>
			</g>
		</g>
	</g>
</g>
</svg>
