<?xml version="1.0" encoding="utf-8"?>
<!-- Generator: Adobe Illustrator 21.1.0, SVG Export Plug-In . SVG Version: 6.00 Build 0)  -->
<svg version="1.1" id="Layer_1" xmlns="http://www.w3.org/2000/svg" xmlns:xlink="http://www.w3.org/1999/xlink" x="0px" y="0px"
	 viewBox="0 0 1080 1080" style="enable-background:new 0 0 1080 1080;" xml:space="preserve">
<style type="text/css">
	.st0{opacity:0.1;}
	.st1{fill:#2C3E50;}
</style>
<g class="st0">
	<g>
		<g>
			<path class="st1" d="M540,1080C242.2,1080,0,837.8,0,540C0,242.2,242.2,0,540,0s540,242.2,540,540
				C1080,837.8,837.8,1080,540,1080z M540,28.1C257.7,28.1,28.1,257.7,28.1,540c0,282.3,229.7,511.9,511.9,511.9
				s511.9-229.7,511.9-511.9C1051.9,257.7,822.3,28.1,540,28.1z"/>
		</g>
	</g>
	<g>
		<g>
			<path class="st1" d="M540,968.3c-236.1,0-428.3-192.1-428.3-428.3c0-236.2,192.1-428.3,428.3-428.3S968.3,303.8,968.3,540
				C968.3,776.2,776.1,968.3,540,968.3z M540,123c-229.9,0-417,187.1-417,417s187.1,417,417,417s417-187.1,417-417
				S769.9,123,540,123z"/>
		</g>
	</g>
	<g>
		<g>
			<path class="st1" d="M759.6,473.3c-33.7,0-78.1-30-112.6-79.3c-20.8-29.7-34.5-61.8-38.6-90.3c-4.3-29.9,2.3-52.7,18.7-64.2
				c16.4-11.5,40.1-9.9,66.8,4.4c25.4,13.7,50.9,37.6,71.6,67.3l0,0c20.8,29.7,34.5,61.8,38.6,90.3c4.3,29.9-2.3,52.7-18.7,64.2
				C778,470.8,769.3,473.3,759.6,473.3z M652.9,243c-7.4,0-14,1.9-19.3,5.6c-12.8,8.9-17.8,27.9-14.1,53.4
				c3.9,26.9,16.9,57.2,36.7,85.5c39.4,56.3,95.6,87.9,122.7,68.9c12.8-8.9,17.8-27.9,14.1-53.4c-3.9-26.9-16.9-57.2-36.7-85.5l0,0
				c-19.8-28.3-43.8-50.9-67.7-63.8C675.4,246.6,663.3,243,652.9,243z"/>
		</g>
	</g>
	<g>
		<g>
			<path class="st1" d="M726.2,386.6c-1.8,0-3.5-0.8-4.6-2.4l-42-60c-1.8-2.5-1.2-6.1,1.4-7.8c2.6-1.8,6.1-1.2,7.8,1.4l42,60
				c1.8,2.5,1.2,6.1-1.4,7.8C728.5,386.3,727.3,386.6,726.2,386.6z"/>
		</g>
	</g>
	<g>
		<g>
			<path class="st1" d="M312.4,567.2c-15,0-27.2-12.2-27.2-27.2c0-15,12.2-27.2,27.2-27.2s27.2,12.2,27.2,27.2
				C339.7,555,327.4,567.2,312.4,567.2z M312.4,524c-8.8,0-16,7.2-16,16s7.2,16,16,16s16-7.2,16-16S321.2,524,312.4,524z"/>
		</g>
	</g>
	<g>
		<g>
			<path class="st1" d="M278.6,393.8c-2.3,0-4.5-1.4-5.3-3.7c-0.2-0.5-18.3-52.3,30.1-75.3c17.9-8.5,36.7-6.9,54.8-5.3
				c23.6,2.1,43.9,3.9,60.8-15.2c27.4-31-0.3-75.5-0.5-75.9c-1.7-2.6-0.9-6.1,1.7-7.8c2.6-1.7,6.1-0.9,7.8,1.7
				c1.3,2.1,32.4,52.1-0.5,89.4c-20.6,23.3-45.9,21.1-70.2,19c-17.4-1.5-33.8-3-49,4.2c-39.3,18.7-25,59.6-24.4,61.3
				c1.1,2.9-0.5,6.2-3.4,7.2C279.9,393.7,279.2,393.8,278.6,393.8z"/>
		</g>
	</g>
	<g>
		<g>
			<path class="st1" d="M735.5,766.2c-26.9,0-48.8-21.9-48.8-48.8c0-26.9,21.9-48.8,48.8-48.8c26.9,0,48.8,21.9,48.8,48.8
				C784.4,744.3,762.5,766.2,735.5,766.2z M735.5,679.8c-20.7,0-37.6,16.9-37.6,37.6c0,20.7,16.9,37.6,37.6,37.6
				c20.7,0,37.6-16.9,37.6-37.6C773.1,696.7,756.3,679.8,735.5,679.8z"/>
		</g>
	</g>
	<g>
		<g>
			<path class="st1" d="M441,876.3c-16.6,0-32.7-8.6-41.6-23.9l-64.7-112c-13.2-22.9-5.3-52.2,17.5-65.4
				c22.9-13.2,52.2-5.3,65.4,17.5l64.7,112c13.2,22.9,5.3,52.2-17.5,65.4C457.4,874.3,449.2,876.3,441,876.3z M376.2,679.8
				c-6.3,0-12.6,1.7-18.3,4.9c-17.5,10.1-23.5,32.5-13.4,50l64.7,112c4.9,8.5,12.8,14.5,22.2,17.1c9.4,2.5,19.3,1.2,27.8-3.7
				c17.5-10.1,23.5-32.5,13.4-50l-64.7-112c-4.9-8.5-12.8-14.5-22.2-17.1C382.6,680.2,379.4,679.8,376.2,679.8z"/>
		</g>
	</g>
	<g>
		<g>
			<circle class="st1" cx="540" cy="540" r="63.7"/>
		</g>
	</g>
	<g>
		<g>
			<path class="st1" d="M443.5,545.6c-3.1,0-5.6-2.5-5.6-5.6c0-56.3,45.8-102.1,102.1-102.1c3.1,0,5.6,2.5,5.6,5.6s-2.5,5.6-5.6,5.6
				c-50.1,0-90.9,40.8-90.9,90.9C449.1,543.1,446.6,545.6,443.5,545.6z"/>
		</g>
	</g>
	<g>
		<g>
			<path class="st1" d="M507.8,511.9L507.8,511.9c-2.3,2.3-6.2,2.3-8.5,0l-31.8-31.8c-2.3-2.3-2.3-6.2,0-8.5v0
				c2.3-2.3,6.2-2.3,8.5,0l31.8,31.8C510.1,505.8,510.1,509.6,507.8,511.9z"/>
		</g>
	</g>
	<g>
		<g>
			<path class="st1" d="M364.3,745.3c-1.9,0-3.8-1-4.8-2.7c-1.6-2.7-0.7-6.1,1.9-7.7l37.3-22.3c2.7-1.6,6.1-0.7,7.7,1.9
				c1.6,2.7,0.7,6.1-1.9,7.7l-37.3,22.3C366.3,745,365.3,745.3,364.3,745.3z"/>
		</g>
	</g>
	<g>
		<g>
			<path class="st1" d="M390,789.2c-1.9,0-3.8-1-4.8-2.7c-1.6-2.7-0.7-6.1,1.9-7.7l37.3-22.3c2.7-1.6,6.1-0.7,7.7,1.9
				c1.6,2.7,0.7,6.1-1.9,7.7l-37.3,22.3C391.9,789,390.9,789.2,390,789.2z"/>
		</g>
	</g>
	<g>
		<g>
			<path class="st1" d="M415.6,833.1c-1.9,0-3.8-1-4.8-2.7c-1.6-2.7-0.7-6.1,1.9-7.7l37.3-22.3c2.7-1.6,6.1-0.7,7.7,1.9
				c1.6,2.7,0.7,6.1-1.9,7.7l-37.3,22.3C417.6,832.9,416.6,833.1,415.6,833.1z"/>
		</g>
	</g>
	<g>
		<g>
			<path class="st1" d="M396.5,558.3c-2.9,0-5.4-2.2-5.6-5.2c-0.3-3-5.8-74.2,40-121.7c28.1-29.2,69.3-42.6,122.4-40.1
				c3.1,0.2,5.5,2.8,5.4,5.9c-0.2,3.1-2.9,5.5-5.9,5.4c-49.7-2.5-87.9,9.9-113.7,36.6c-42.3,43.8-36.9,112.2-36.9,112.9
				c0.3,3.1-2,5.8-5.1,6.1C396.8,558.3,396.6,558.3,396.5,558.3z"/>
		</g>
	</g>
</g>
</svg>
