<?xml version="1.0" encoding="utf-8"?>
<!-- Generator: Adobe Illustrator 21.1.0, SVG Export Plug-In . SVG Version: 6.00 Build 0)  -->
<svg version="1.1" id="Layer_1" xmlns="http://www.w3.org/2000/svg" xmlns:xlink="http://www.w3.org/1999/xlink" x="0px" y="0px"
	 viewBox="0 0 1080 1080" style="enable-background:new 0 0 1080 1080;" xml:space="preserve">
<style type="text/css">
	.st0{opacity:0.4;}
	.st1{fill:#19773F;}
</style>
<g class="st0">
	<g>
		<g>
			<rect x="540" y="107.5" class="st1" width="105.4" height="21.2"/>
		</g>
	</g>
	<g>
		<g>
			<g>
				<path class="st1" d="M540,1080c-79,0-143.3-86.9-143.3-193.7V124.7h-21.6c-26.5,0-48-21.5-48-48V48c0-26.5,21.5-48,48-48h329.9
					c26.5,0,48,21.5,48,48v28.7c0,26.5-21.5,48-48,48h-21.6v761.5C683.3,993.1,619,1080,540,1080z M375.1,21.2
					c-14.8,0-26.8,12-26.8,26.8v28.7c0,14.8,12,26.8,26.8,26.8h42.9v782.8c0,95.1,54.8,172.5,122.1,172.5s122.1-77.4,122.1-172.5
					V103.5h42.9c14.8,0,26.8-12,26.8-26.8V48c0-14.8-12-26.8-26.8-26.8H375.1z"/>
			</g>
		</g>
		<g>
			<g>
				<rect x="568.4" y="172.5" class="st1" width="77" height="21.2"/>
			</g>
		</g>
		<g>
			<g>
				<rect x="540" y="237.5" class="st1" width="105.4" height="21.2"/>
			</g>
		</g>
		<g>
			<g>
				<rect x="568.4" y="302.5" class="st1" width="77" height="21.2"/>
			</g>
		</g>
		<g>
			<g>
				<rect x="540" y="367.5" class="st1" width="105.4" height="21.2"/>
			</g>
		</g>
		<g>
			<g>
				<rect x="568.4" y="432.5" class="st1" width="77" height="21.2"/>
			</g>
		</g>
		<g>
			<g>
				<rect x="540" y="497.5" class="st1" width="105.4" height="21.2"/>
			</g>
		</g>
		<g>
			<g>
				<rect x="568.4" y="562.6" class="st1" width="77" height="21.2"/>
			</g>
		</g>
		<g>
			<g>
				<rect x="540" y="627.6" class="st1" width="105.4" height="21.2"/>
			</g>
		</g>
		<g>
			<g>
				<rect x="568.4" y="692.6" class="st1" width="77" height="21.2"/>
			</g>
		</g>
		<g>
			<g>
				<rect x="540" y="757.6" class="st1" width="105.4" height="21.2"/>
			</g>
		</g>
		<g>
			<g>
				<rect x="568.4" y="822.6" class="st1" width="77" height="21.2"/>
			</g>
		</g>
		<g>
			<g>
				<rect x="540" y="887.6" class="st1" width="105.4" height="21.2"/>
			</g>
		</g>
	</g>
</g>
</svg>
