<?xml version="1.0" encoding="utf-8"?>
<!-- Generator: Adobe Illustrator 21.1.0, SVG Export Plug-In . SVG Version: 6.00 Build 0)  -->
<svg version="1.1" id="Layer_1" xmlns="http://www.w3.org/2000/svg" xmlns:xlink="http://www.w3.org/1999/xlink" x="0px" y="0px"
	 viewBox="0 0 1080 1080" style="enable-background:new 0 0 1080 1080;" xml:space="preserve">
<style type="text/css">
	.st0{opacity:0.4;}
	.st1{fill:#19773F;}
</style>
<g class="st0">
	<g>
		<g>
			<path class="st1" d="M446,457.5H324.3c-14.6,0-26.5-11.9-26.5-26.5V90.5c0-14.6,11.9-26.5,26.5-26.5H446
				c14.6,0,26.5,11.9,26.5,26.5V431C472.5,445.6,460.6,457.5,446,457.5z M324.3,85.2c-2.9,0-5.3,2.4-5.3,5.3V431
				c0,2.9,2.4,5.3,5.3,5.3H446c2.9,0,5.3-2.4,5.3-5.3V90.5c0-2.9-2.4-5.3-5.3-5.3H324.3z"/>
		</g>
	</g>
	<g>
		<g>
			<path class="st1" d="M440.7,85.2H329.6V23.4c0-11.7,9.5-21.2,21.2-21.2h68.8c11.7,0,21.2,9.5,21.2,21.2v61.8H440.7z M350.7,64
				h68.8V23.4h-68.8V64z"/>
		</g>
	</g>
	<g>
		<g>
			<path class="st1" d="M405.6,515.3h-40.8c-9.3,0-18.1-5-22.8-13.1l-36.4-61.9h159.2l-36.4,61.9
				C423.7,510.3,414.9,515.3,405.6,515.3z M342.5,461.5l17.6,30c0.9,1.6,2.7,2.6,4.6,2.6h40.8c1.9,0,3.6-1,4.6-2.6l17.6-30H342.5z"
				/>
		</g>
	</g>
	<g>
		<g>
			<path class="st1" d="M910,1077.8H170c-17.1,0-31-13.9-31-31V995c0-17.1,13.9-31,31-31h740c17.1,0,31,13.9,31,31v51.7
				C941,1063.8,927.1,1077.8,910,1077.8z M170,985.1c-5.4,0-9.9,4.4-9.9,9.9v51.7c0,5.4,4.4,9.9,9.9,9.9h740c5.4,0,9.9-4.4,9.9-9.9
				V995c0-5.4-4.4-9.9-9.9-9.9H170z"/>
		</g>
	</g>
	<g>
		<g>
			<path class="st1" d="M565.1,756.3H220.5c-12.1,0-22-9.9-22-22V692c0-12.1,9.9-22,22-22h344.6V756.3z M220.5,691.2
				c-0.4,0-0.8,0.4-0.8,0.8v42.3c0,0.4,0.4,0.8,0.8,0.8H544v-43.9L220.5,691.2L220.5,691.2z"/>
		</g>
	</g>
	<g>
		<g>
			<path class="st1" d="M878.2,975.4H544V670h142.7c9.4,0,18.2,5.1,22.9,13.2L878.2,975.4z M565.1,954.3h276.4L691.2,693.8
				c-0.9-1.6-2.7-2.6-4.6-2.6H565.1V954.3z"/>
		</g>
	</g>
	<g>
		<g>
			<path class="st1" d="M794.8,849.2l-12.9-16.8c87.7-67.8,138-170.1,138-280.8c0-195.6-159.1-354.7-354.7-354.7
				c-34.1,0-67.8,4.8-100.2,14.4l-6-20.3c34.4-10.1,70.1-15.2,106.2-15.2c207.2,0,375.9,168.6,375.9,375.9
				C941,668.9,887.7,777.3,794.8,849.2z"/>
		</g>
	</g>
	<g>
		<g>
			<path class="st1" d="M465.8,300.4l-7.8-19.7c34.1-13.5,70.1-20.3,107.1-20.3v21.2C530.8,281.6,497.4,287.9,465.8,300.4z"/>
		</g>
	</g>
	<g>
		<g>
			<path class="st1" d="M752.2,774.7l-13.6-16.2c61.3-51.5,96.5-126.9,96.5-206.9c0-148.9-121.1-270-270-270v-21.2
				c160.5,0,291.2,130.6,291.2,291.2C856.3,637.8,818.4,719.1,752.2,774.7z"/>
		</g>
	</g>
	<g>
		<g>
			<circle class="st1" cx="644.4" cy="766.6" r="30.4"/>
		</g>
	</g>
</g>
</svg>
